<svg width="32" height="33" viewBox="0 0 32 33" fill="none" xmlns="http://www.w3.org/2000/svg">
<g clip-path="url(#clip0_10_25)">
<path d="M11 29.5C12.1046 29.5 13 28.6046 13 27.5C13 26.3954 12.1046 25.5 11 25.5C9.89543 25.5 9 26.3954 9 27.5C9 28.6046 9.89543 29.5 11 29.5Z" fill="white"/>
<path d="M24 29.5C25.1046 29.5 26 28.6046 26 27.5C26 26.3954 25.1046 25.5 24 25.5C22.8954 25.5 22 26.3954 22 27.5C22 28.6046 22.8954 29.5 24 29.5Z" fill="white"/>
<path d="M2 4.5H5L9.59375 21.035C9.71066 21.4561 9.96229 21.8273 10.3101 22.0919C10.658 22.3565 11.083 22.4998 11.52 22.5H23.875C24.3123 22.5001 24.7375 22.3569 25.0856 22.0923C25.4337 21.8277 25.6855 21.4563 25.8025 21.035L29 9.5H27" stroke="white" stroke-width="2" stroke-linecap="round" stroke-linejoin="round"/>
</g>
<defs>
<clipPath id="clip0_10_25">
<rect width="32" height="32" fill="white" transform="translate(0 0.5)"/>
</clipPath>
</defs>
</svg>
